<svg width="25" height="25" viewBox="0 0 25 25" fill="none" xmlns="http://www.w3.org/2000/svg">
    <path d="M17.75 10.5H19.75C21.75 10.5 22.75 9.5 22.75 7.5V5.5C22.75 3.5 21.75 2.5 19.75 2.5H17.75C15.75 2.5 14.75 3.5 14.75 5.5V7.5C14.75 9.5 15.75 10.5 17.75 10.5Z" stroke="#292D32" stroke-width="1.5" stroke-miterlimit="10" stroke-linecap="round" stroke-linejoin="round"/>
    <path d="M5.75 22.5H7.75C9.75 22.5 10.75 21.5 10.75 19.5V17.5C10.75 15.5 9.75 14.5 7.75 14.5H5.75C3.75 14.5 2.75 15.5 2.75 17.5V19.5C2.75 21.5 3.75 22.5 5.75 22.5Z" stroke="#292D32" stroke-width="1.5" stroke-miterlimit="10" stroke-linecap="round" stroke-linejoin="round"/>
    <path d="M6.75 10.5C8.95914 10.5 10.75 8.70914 10.75 6.5C10.75 4.29086 8.95914 2.5 6.75 2.5C4.54086 2.5 2.75 4.29086 2.75 6.5C2.75 8.70914 4.54086 10.5 6.75 10.5Z" stroke="#292D32" stroke-width="1.5" stroke-miterlimit="10" stroke-linecap="round" stroke-linejoin="round"/>
    <path d="M18.75 22.5C20.9591 22.5 22.75 20.7091 22.75 18.5C22.75 16.2909 20.9591 14.5 18.75 14.5C16.5409 14.5 14.75 16.2909 14.75 18.5C14.75 20.7091 16.5409 22.5 18.75 22.5Z" stroke="#292D32" stroke-width="1.5" stroke-miterlimit="10" stroke-linecap="round" stroke-linejoin="round"/>
    </svg>
    